<?xml version="1.0" standalone="no"?>
<!DOCTYPE svg PUBLIC "-//W3C//DTD SVG 20010904//EN"
 "http://www.w3.org/TR/2001/REC-SVG-20010904/DTD/svg10.dtd">
<svg version="1.0" xmlns="http://www.w3.org/2000/svg"
 width="400.000000pt" height="400.000000pt" viewBox="0 0 400.000000 400.000000"
 preserveAspectRatio="xMidYMid meet">
<metadata>
Created by potrace 1.11, written by Peter Selinger 2001-2013
</metadata>
<g transform="translate(0.000000,400.000000) scale(0.100000,-0.100000)"
fill="#000000" stroke="none">
<path d="M1770 3976 c-738 -97 -1338 -555 -1614 -1231 -99 -243 -139 -458
-140 -740 -1 -226 14 -338 69 -539 257 -937 1179 -1554 2149 -1441 894 105
1594 776 1742 1671 25 147 25 466 0 609 -148 867 -797 1517 -1656 1660 -133
22 -419 28 -550 11z m976 -253 c-4 -10 -214 -553 -468 -1206 -253 -653 -459
-1189 -457 -1190 2 -1 168 1 369 5 201 5 403 7 451 6 l85 -3 -23 -61 -24 -62
-197 -6 c-108 -3 -315 -9 -458 -12 l-262 -6 -25 -65 -26 -65 456 7 455 8 -7
-24 c-5 -13 -16 -42 -25 -65 l-18 -41 -198 -6 c-108 -4 -274 -7 -368 -8 -94
-1 -211 -4 -259 -8 l-89 -6 -24 -59 c-13 -33 -22 -61 -19 -64 2 -2 206 0 452
5 246 6 449 9 451 8 2 -2 -9 -32 -23 -68 l-26 -64 -332 -7 c-183 -3 -414 -9
-515 -12 l-182 -6 9 23 c5 13 271 699 591 1524 320 825 586 1510 591 1523 7
19 16 22 65 22 49 0 55 -2 50 -17z m-686 -5 c0 -7 -267 -701 -594 -1543 l-594
-1530 -56 -3 c-31 -2 -56 -1 -56 2 0 4 1130 2920 1187 3063 3 7 26 14 51 16
26 2 50 4 55 5 4 1 7 -4 7 -10z m230 5 c0 -5 -268 -700 -597 -1545 l-596
-1538 -54 0 c-29 0 -53 4 -53 9 0 5 259 677 576 1493 317 815 585 1507 596
1536 l19 52 55 0 c30 0 54 -3 54 -7z m230 4 c0 -2 -268 -694 -595 -1537 -327
-843 -595 -1534 -595 -1536 0 -2 -25 -4 -55 -4 -30 0 -55 4 -55 8 0 6 907
2347 1181 3050 7 19 16 22 64 22 30 0 55 -2 55 -3z"/>
</g>
</svg>
